# Blender v2.79 (sub 0) OBJ File: ''
# www.blender.org
mtllib bandeira.mtl
o Cube.002
v -0.041154 0.018307 -0.047944
v -0.041154 0.018307 0.035952
v -0.041154 1.828961 0.035953
v -0.041154 1.828961 -0.047943
v 0.031231 1.841635 -0.037830
v -0.031231 1.841635 -0.037830
v -0.011805 1.850196 -0.018028
v 0.011805 1.850196 -0.018028
v 0.041154 1.828961 -0.047943
v 0.041154 1.828961 0.035953
v 0.041154 0.018307 0.035952
v 0.041154 0.018307 -0.047944
v -0.011805 1.850196 0.006038
v 0.011805 1.850196 0.006038
v 0.031231 1.841635 0.025839
v -0.031231 1.841635 0.025839
vn -1.0000 0.0000 0.0000
vn 0.0000 0.9179 -0.3968
vn 1.0000 0.0000 0.0000
vn 0.0000 -1.0000 -0.0000
vn 0.0000 0.0000 -1.0000
vn 0.0000 -0.0000 1.0000
vn 0.0000 1.0000 0.0000
vn 0.4033 0.9151 0.0000
vn 0.0000 0.9179 0.3968
vn -0.4033 0.9151 0.0000
vn -0.7874 0.6165 0.0000
vn 0.0000 0.6238 0.7816
vn 0.7874 0.6165 0.0000
vn 0.0000 0.6237 -0.7817
usemtl Material.004
s 1
f 1//1 2//1 3//1 4//1
f 5//2 6//2 7//2 8//2
f 9//3 10//3 11//3 12//3
f 12//4 11//4 2//4 1//4
f 4//5 9//5 12//5 1//5
f 10//6 3//6 2//6 11//6
f 7//7 13//7 14//7 8//7
f 15//8 5//8 8//8 14//8
f 16//9 15//9 14//9 13//9
f 6//10 16//10 13//10 7//10
f 4//11 3//11 16//11 6//11
f 3//12 10//12 15//12 16//12
f 10//13 9//13 5//13 15//13
f 9//14 4//14 6//14 5//14
o Plane_Plane.002
v 0.013529 1.524230 0.674588
v 0.013529 1.234106 0.013999
v 0.013529 1.821418 0.013999
v 0.013529 1.531292 0.674588
v -0.009235 1.524230 0.674588
v -0.009235 1.531292 0.674588
v -0.009235 1.821418 0.013999
v -0.009235 1.234106 0.013999
vn 1.0000 0.0000 0.0000
vn -1.0000 -0.0000 0.0000
vn 0.0000 0.9156 0.4021
vn 0.0000 -0.9156 0.4021
vn 0.0000 0.0000 -1.0000
vn 0.0000 0.0000 1.0000
usemtl Material.003
s 1
f 17//15 18//15 19//15 20//15
f 21//16 22//16 23//16 24//16
f 19//17 23//17 22//17 20//17
f 17//18 21//18 24//18 18//18
f 18//19 24//19 23//19 19//19
f 20//20 22//20 21//20 17//20
