# Blender v2.79 (sub 0) OBJ File: 'untitled3.blend'
# www.blender.org
mtllib level3.mtl
o Plane
v -1.000000 0.000000 5.000000
v 1.000000 0.000000 5.000000
v -1.000000 0.000000 3.000000
v 1.000000 0.000000 3.000000
vn 0.0000 1.0000 0.0000
usemtl None
s off
f 1//1 2//1 4//1 3//1
o Plane_Plane.001
v -500.000000 -0.000044 500.386841
v 500.000000 -0.000044 500.386841
v 500.000000 0.000044 -499.613159
v -500.000000 0.000044 -499.613159
vn 0.0000 1.0000 0.0000
usemtl Material.015
s off
f 5//2 6//2 7//2 8//2
o Cube_Cube.002_Cube_Cube.003
v 5.878571 -0.100919 -6.195466
v 5.706113 -0.100919 -5.883204
v 5.830089 0.149759 -5.878125
v 5.955004 0.237496 -6.112504
v 6.198814 0.149759 -6.217830
v 6.203893 -0.100919 -6.341804
v 6.516156 -0.100919 -6.169349
v 6.433193 0.237496 -6.092914
v 6.538518 0.149759 -5.849103
v 6.662494 -0.100919 -5.844024
v 6.490036 -0.100919 -5.531760
v 6.413603 0.237496 -5.614724
v 6.169791 0.149759 -5.509398
v 6.164712 -0.100919 -5.385423
v 5.852450 -0.100919 -5.557879
v 5.935413 0.237496 -5.634315
v 6.184303 0.350301 -5.863614
v 5.504223 -0.100919 -5.784686
v 5.569315 -0.100919 -5.634519
v 5.605908 0.014095 -5.678128
v 5.555782 0.054350 -5.789197
v 5.585860 0.014095 -5.907281
v 5.542251 -0.100919 -5.943873
v 5.692419 -0.100919 -6.008967
v 5.696929 0.054350 -5.957408
v 5.815013 0.014095 -5.927329
v 5.851607 -0.100919 -5.970939
v 5.916698 -0.100919 -5.820773
v 5.865139 0.054350 -5.816262
v 5.835063 0.014095 -5.698176
v 5.878673 -0.100919 -5.661584
v 5.728506 -0.100919 -5.596492
v 5.723994 0.054350 -5.648051
v 5.710462 0.106106 -5.802730
vn -0.8367 0.3481 0.4227
vn -0.8974 0.3482 -0.2710
vn -0.4227 0.3482 -0.8367
vn 0.2710 0.3482 -0.8974
vn 0.8367 0.3482 -0.4227
vn 0.8974 0.3482 0.2710
vn 0.4227 0.3482 0.8367
vn -0.2710 0.3482 0.8974
vn 0.3165 0.8704 -0.3772
vn -0.3772 0.8704 -0.3165
vn -0.3165 0.8704 0.3772
vn 0.3772 0.8704 0.3165
vn -0.8458 0.3482 -0.4042
vn -0.3337 0.3482 -0.8760
vn 0.4042 0.3482 -0.8458
vn 0.8760 0.3482 -0.3337
vn 0.8458 0.3482 0.4042
vn 0.3337 0.3482 0.8760
vn -0.4042 0.3482 0.8458
vn -0.8760 0.3482 0.3337
vn 0.4920 0.8704 0.0202
vn 0.0202 0.8704 -0.4920
vn -0.4920 0.8704 -0.0202
vn -0.0202 0.8704 0.4920
usemtl Material.058
s off
f 26//3 27//3 28//3 29//3
f 26//4 29//4 30//4 31//4
f 32//5 31//5 30//5 33//5
f 32//6 33//6 34//6 35//6
f 36//7 35//7 34//7 37//7
f 36//8 37//8 38//8 39//8
f 40//9 39//9 38//9 41//9
f 40//10 41//10 28//10 27//10
f 42//11 37//11 34//11 33//11
f 42//12 33//12 30//12 29//12
f 42//13 29//13 28//13 41//13
f 42//14 41//14 38//14 37//14
usemtl Material.057
f 9//15 10//15 11//15 12//15
f 9//16 12//16 13//16 14//16
f 15//17 14//17 13//17 16//17
f 15//18 16//18 17//18 18//18
f 19//19 18//19 17//19 20//19
f 19//20 20//20 21//20 22//20
f 23//21 22//21 21//21 24//21
f 23//22 24//22 11//22 10//22
f 25//23 20//23 17//23 16//23
f 25//24 16//24 13//24 12//24
f 25//25 12//25 11//25 24//25
f 25//26 24//26 21//26 20//26
o Cube.001_Cube.000
v -1.999999 2.772860 4.627819
v -1.999999 2.572860 4.627819
v -3.999999 2.772860 4.627819
v -3.999999 2.572860 4.627819
v 2.000001 2.572860 4.627819
v 2.000001 2.772860 4.627819
v 4.000000 2.572860 4.627818
v 4.000000 2.772860 4.627818
v -4.000000 2.772860 0.648785
v -4.000000 2.572860 0.648785
v -2.000000 2.772860 0.648785
v -2.000000 2.572860 0.648785
v 2.000000 2.572860 0.648785
v 4.000000 2.772860 0.648785
v 4.000000 2.572860 0.648785
v 2.000000 2.772860 0.648785
v 2.000000 2.576619 0.671394
v 2.000000 2.776619 0.671394
v 2.000000 1.200000 -11.701214
v 2.000000 1.000000 -11.701214
v 4.000000 1.200000 -11.701214
v 4.000000 1.000000 -11.701214
v 4.000000 2.776619 0.671394
v 4.000000 2.576619 0.671394
v -2.000000 2.576619 0.671394
v -2.000000 1.000000 -11.701215
v -2.000000 1.200000 -11.701215
v -2.000000 2.776619 0.671394
v -4.000000 1.000000 -11.701215
v -4.000000 1.200000 -11.701215
v -4.000000 2.576619 0.671394
v -4.000000 2.776619 0.671394
v -2.000000 1.000000 -9.701215
v -2.000000 1.200000 -9.701215
v -2.000000 1.200000 -11.701215
v -2.000000 1.000000 -11.701215
v 2.000000 1.200000 -11.701214
v 2.000000 1.000000 -11.701214
v 2.000000 1.200000 -9.701214
v 2.000000 1.000000 -9.701214
v 4.000000 1.200000 -3.701215
v 4.000000 1.000000 -3.701215
v 2.000000 1.200000 -3.701214
v 2.000000 1.000000 -3.701214
v -2.000000 1.000000 -3.701215
v -4.000000 1.200000 -3.701215
v -4.000000 1.000000 -3.701215
v -2.000000 1.200000 -3.701215
v -4.000000 0.577091 4.631954
v -4.000000 2.577091 4.631954
v -4.000000 1.000000 -11.701215
v -4.000000 -1.000000 -11.701215
v 4.000000 1.000000 -11.701214
v 4.000000 -1.000000 -11.701214
v 4.000000 2.577091 4.631953
v 4.000000 0.577091 4.631954
v -0.500029 2.577091 3.970059
v -0.375032 2.577091 3.595067
v -0.000040 2.577091 3.470063
v 0.374946 2.577091 3.595047
v 0.499968 2.577091 3.970057
v 0.374957 2.577091 4.345050
v -0.000017 2.577091 4.470077
v -0.375025 2.577091 4.345069
v -0.375025 1.679550 4.345069
v -0.500029 1.679550 3.970059
v -0.000017 1.679550 4.470077
v 0.374957 1.679550 4.345050
v 0.499968 1.679550 3.970057
v 0.374946 1.679550 3.595046
v -0.000040 1.679550 3.470063
v -0.375032 1.679550 3.595067
v 4.000000 1.000000 -3.701215
v 4.000000 -1.000000 -3.701214
v -4.000000 1.000000 -3.701215
v -4.000000 -1.000000 -3.701215
v 4.000000 2.577091 0.657219
v 4.000000 0.577091 0.657219
v -4.000000 2.577091 0.657219
v -4.000000 0.577091 0.657219
v -1.999999 2.772860 3.372181
v -1.999999 2.572860 3.372181
v -3.999999 2.772860 3.372181
v -3.999999 2.572860 3.372181
v 2.000001 2.572860 3.372182
v 2.000001 2.772860 3.372182
v 4.000000 2.572860 3.372182
v 4.000000 2.772860 3.372182
v -4.000000 2.772860 7.351215
v -4.000000 2.572860 7.351215
v -2.000000 2.772860 7.351214
v -2.000000 2.572860 7.351214
v 2.000000 2.572860 7.351215
v 4.000000 2.772860 7.351215
v 4.000000 2.572860 7.351215
v 2.000000 2.772860 7.351215
v 2.000000 2.576619 7.328607
v 2.000000 2.776619 7.328607
v 2.000000 1.200001 19.701214
v 2.000000 1.000000 19.701214
v 4.000000 1.200001 19.701214
v 4.000000 1.000000 19.701214
v 4.000000 2.776619 7.328607
v 4.000000 2.576619 7.328607
v -2.000000 2.576619 7.328606
v -2.000000 1.000000 19.701214
v -2.000000 1.200001 19.701214
v -2.000000 2.776619 7.328606
v -4.000000 1.000000 19.701214
v -4.000000 1.200001 19.701214
v -4.000000 2.576619 7.328607
v -4.000000 2.776619 7.328607
v -2.000000 1.000000 17.701214
v -2.000000 1.200000 17.701214
v -2.000000 1.200001 19.701214
v -2.000000 1.000000 19.701214
v 2.000000 1.200001 19.701214
v 2.000000 1.000000 19.701214
v 2.000000 1.200000 17.701214
v 2.000000 1.000000 17.701214
v 4.000000 1.200000 11.701215
v 4.000000 1.000000 11.701215
v 2.000000 1.200000 11.701215
v 2.000000 1.000000 11.701215
v -2.000000 1.000000 11.701215
v -4.000000 1.200000 11.701215
v -4.000000 1.000000 11.701215
v -2.000000 1.200000 11.701215
v -4.000000 0.577091 3.368046
v -4.000000 2.577091 3.368046
v -4.000000 1.000000 19.701214
v -4.000000 -1.000000 19.701214
v 4.000000 1.000000 19.701214
v 4.000000 -1.000000 19.701214
v 4.000000 2.577091 3.368047
v 4.000000 0.577091 3.368047
v -0.500029 2.577091 4.029941
v -0.375032 2.577091 4.404933
v -0.000040 2.577091 4.529937
v 0.374946 2.577091 4.404954
v 0.499968 2.577091 4.029943
v 0.374957 2.577091 3.654950
v -0.000017 2.577091 3.529923
v -0.375025 2.577091 3.654931
v -0.375025 1.679550 3.654931
v -0.500029 1.679550 4.029941
v -0.000017 1.679550 3.529923
v 0.374957 1.679550 3.654950
v 0.499968 1.679550 4.029943
v 0.374946 1.679550 4.404954
v -0.000040 1.679550 4.529937
v -0.375032 1.679550 4.404933
v 4.000000 1.000000 11.701215
v 4.000000 -1.000000 11.701215
v -4.000000 1.000000 11.701215
v -4.000000 -1.000000 11.701215
v 4.000000 2.577091 7.342781
v 4.000000 0.577091 7.342781
v -4.000000 2.577091 7.342781
v -4.000000 0.577091 7.342781
vn 1.0000 0.0000 -0.0000
vn 0.0000 0.0000 1.0000
vn -1.0000 0.0000 0.0000
vn -0.0000 1.0000 -0.0000
vn 0.0000 -1.0000 0.0000
vn 0.0000 0.0000 -1.0000
vn 0.0000 -0.9851 0.1722
vn 0.0000 -0.9407 0.3392
vn -0.0000 0.9851 -0.1722
vn -0.0000 0.9407 -0.3392
vn 0.0000 -0.9851 -0.1722
vn 0.0000 -0.9407 -0.3392
vn 0.0000 0.9851 0.1722
vn 0.0000 0.9407 0.3392
vn 0.9487 0.0000 -0.3162
vn 0.9487 0.0000 0.3162
vn -0.3162 -0.0000 0.9487
vn -0.9487 0.0000 -0.3163
vn 0.3162 0.0000 -0.9487
vn 0.3162 0.0000 0.9487
vn -0.9487 -0.0000 0.3163
vn -0.3163 0.0000 -0.9487
vn -0.3162 0.0000 -0.9487
vn -0.3163 -0.0000 0.9487
vn -0.0000 -0.9850 0.1727
vn -0.0000 0.9850 -0.1727
vn 0.0000 -0.9850 -0.1727
vn -0.0000 0.9850 0.1727
usemtl Material.067
s 1
f 54//27 53//27 43//27 44//27
f 44//28 43//28 45//28 46//28
f 55//29 47//29 48//29 58//29
f 47//28 49//28 50//28 48//28
f 45//30 43//30 53//30 51//30
f 44//31 46//31 52//31 54//31
f 46//29 45//29 51//29 52//29
f 50//30 56//30 58//30 48//30
f 47//31 55//31 57//31 49//31
f 49//27 57//27 56//27 50//27
f 134//27 124//27 123//27 133//27
f 124//32 126//32 125//32 123//32
f 135//29 138//29 128//29 127//29
f 127//32 128//32 130//32 129//32
f 125//30 131//30 133//30 123//30
f 124//31 134//31 132//31 126//31
f 126//29 132//29 131//29 125//29
f 130//30 128//30 138//30 136//30
f 127//31 129//31 137//31 135//31
f 129//27 130//27 136//27 137//27
usemtl Material.002
f 86//29 85//29 61//29 62//29
f 62//32 61//32 63//32 64//32
f 84//27 83//27 65//27 66//27
f 66//28 65//28 60//28 59//28
f 86//33 84//33 66//34 59//34
f 83//35 85//35 60//36 65//36
f 87//27 68//27 69//27 90//27
f 68//32 71//32 72//32 69//32
f 89//29 73//29 74//29 88//29
f 73//28 67//28 70//28 74//28
f 87//33 67//34 73//34 89//33
f 88//35 74//36 70//36 90//35
f 75//29 76//29 77//29 78//29
f 78//32 77//32 79//32 80//32
f 80//27 79//27 81//27 82//27
f 82//28 81//28 76//28 75//28
f 78//31 80//31 82//31 75//31
f 79//30 77//30 76//30 81//30
f 63//30 61//30 85//35 83//35
f 62//31 64//31 84//33 86//33
f 64//27 63//27 83//27 84//27
f 59//29 60//29 85//29 86//29
f 72//30 88//35 90//35 69//30
f 68//31 87//33 89//33 71//31
f 71//29 89//29 88//29 72//29
f 67//27 87//27 90//27 70//27
f 166//29 142//29 141//29 165//29
f 142//28 144//28 143//28 141//28
f 164//27 146//27 145//27 163//27
f 146//32 139//32 140//32 145//32
f 166//37 139//38 146//38 164//37
f 163//39 145//40 140//40 165//39
f 167//27 170//27 149//27 148//27
f 148//28 149//28 152//28 151//28
f 169//29 168//29 154//29 153//29
f 153//32 154//32 150//32 147//32
f 167//37 169//37 153//38 147//38
f 168//39 170//39 150//40 154//40
f 155//29 158//29 157//29 156//29
f 158//28 160//28 159//28 157//28
f 160//27 162//27 161//27 159//27
f 162//32 155//32 156//32 161//32
f 158//31 155//31 162//31 160//31
f 159//30 161//30 156//30 157//30
f 143//30 163//39 165//39 141//30
f 142//31 166//37 164//37 144//31
f 144//27 164//27 163//27 143//27
f 139//29 166//29 165//29 140//29
f 152//30 149//30 170//39 168//39
f 148//31 151//31 169//37 167//37
f 151//29 152//29 168//29 169//29
f 147//27 150//27 170//27 167//27
usemtl Material.005
f 99//41 106//41 107//41 108//41
f 107//30 109//30 110//30 111//30 112//30 113//30 114//30 108//30
f 100//42 99//42 108//42 114//42
f 102//43 101//43 113//43 112//43
f 104//44 103//44 111//44 110//44
f 106//45 105//45 109//45 107//45
f 101//46 100//46 114//46 113//46
f 103//47 102//47 112//47 111//47
f 105//48 104//48 110//48 109//48
f 179//42 188//42 187//42 186//42
f 187//30 188//30 194//30 193//30 192//30 191//30 190//30 189//30
f 180//41 194//41 188//41 179//41
f 182//49 192//49 193//49 181//49
f 184//47 190//47 191//47 183//47
f 186//46 187//46 189//46 185//46
f 181//45 193//45 194//45 180//45
f 183//44 191//44 192//44 182//44
f 185//50 189//50 190//50 184//50
usemtl Material.006
f 118//29 117//29 93//29 94//29
f 94//32 93//32 95//32 96//32
f 120//27 119//27 97//27 98//27
f 98//28 97//28 92//28 91//28
f 122//51 120//51 98//31 91//31
f 119//52 121//52 92//30 99//30 100//30 101//30 102//30 103//30 97//30
f 97//30 103//30 104//30 105//30 106//30 99//30 92//30
f 95//30 93//30 117//52 115//52
f 94//31 96//31 116//51 118//51
f 96//27 95//27 115//27 116//27
f 122//29 121//29 117//29 118//29
f 91//29 92//29 121//29 122//29
f 115//52 117//52 121//52 119//52
f 118//51 116//51 120//51 122//51
f 116//27 115//27 119//27 120//27
f 198//29 174//29 173//29 197//29
f 174//28 176//28 175//28 173//28
f 200//27 178//27 177//27 199//27
f 178//32 171//32 172//32 177//32
f 202//53 171//31 178//31 200//53
f 199//54 177//30 183//30 182//30 181//30 180//30 179//30 172//30 201//54
f 177//30 172//30 179//30 186//30 185//30 184//30 183//30
f 175//30 195//54 197//54 173//30
f 174//31 198//53 196//53 176//31
f 176//27 196//27 195//27 175//27
f 202//29 198//29 197//29 201//29
f 171//29 202//29 201//29 172//29
f 195//54 199//54 201//54 197//54
f 198//53 202//53 200//53 196//53
f 196//27 200//27 199//27 195//27
