# Blender v2.79 (sub 0) OBJ File: ''
# www.blender.org
mtllib circulo.mtl
o Circle_Circle.001
v -0.359174 0.018241 -0.867125
v -0.663669 0.018241 -0.663669
v -0.867125 0.018241 -0.359174
v -0.938569 0.018241 0.000000
v -0.729221 0.018241 0.000000
v -0.673712 0.018241 -0.279060
v -0.515636 0.018241 -0.515637
v -0.279061 0.018241 -0.673713
v 0.000000 0.018241 -0.729221
v 0.279060 0.018241 -0.673713
v 0.515638 0.018241 -0.515637
v 0.673714 0.018241 -0.279062
v 0.729222 0.018241 0.000000
v 0.938569 0.018241 0.000000
v 0.867125 0.018241 -0.359176
v 0.663669 0.018241 -0.663669
v 0.359174 0.018241 -0.867125
v 0.000000 0.018241 -0.938569
v 0.673712 0.018241 0.279061
v 0.515638 0.018241 0.515637
v 0.279060 0.018241 0.673713
v -0.000001 0.018241 0.729221
v -0.279059 0.018241 0.673712
v -0.515636 0.018241 0.515637
v -0.673711 0.018241 0.279061
v -0.867125 0.018241 0.359174
v -0.663669 0.018241 0.663669
v -0.359174 0.018241 0.867125
v 0.000000 0.018241 0.938569
v 0.359174 0.018241 0.867125
v 0.663669 0.018241 0.663669
v 0.867125 0.018241 0.359176
v -0.304513 0.161516 -0.735160
v 0.000000 0.161516 -0.795732
v 0.000000 0.161516 -0.618244
v 0.236591 0.161516 -0.571183
v -0.236590 0.161516 0.571182
v -0.437163 0.161516 0.437164
v -0.571182 0.161516 -0.236591
v -0.437163 0.161516 -0.437164
v 0.618244 0.161516 0.000000
v 0.571182 0.161516 0.236592
v -0.618243 0.161516 0.000000
v -0.571181 0.161516 0.236592
v 0.795732 0.161516 0.000000
v 0.735160 0.161516 -0.304514
v -0.735160 0.161516 -0.304513
v -0.795732 0.161516 0.000000
v 0.304513 0.161516 -0.735160
v 0.735160 0.161516 0.304514
v 0.304513 0.161516 0.735160
v 0.562668 0.161516 0.562668
v 0.437165 0.161516 -0.437164
v 0.571184 0.161516 -0.236593
v -0.562668 0.161516 0.562668
v -0.304513 0.161516 0.735160
v -0.000001 0.161516 0.618244
v 0.437165 0.161516 0.437164
v -0.562668 0.161516 -0.562668
v 0.000000 0.161516 0.795732
v 0.236591 0.161516 0.571183
v -0.236592 0.161516 -0.571183
v -0.735160 0.161516 0.304513
v 0.562668 0.161516 -0.562668
vn -0.0000 -1.0000 -0.0000
vn 0.0000 1.0000 0.0000
vn -0.5590 -0.6124 -0.5590
vn -0.3025 -0.6124 -0.7304
vn 0.6543 0.7060 0.2710
vn 0.7082 0.7060 0.0000
vn 0.5590 -0.6124 0.5590
vn 0.3025 -0.6124 0.7304
vn -0.3025 -0.6124 0.7304
vn -0.5590 -0.6124 0.5590
vn 0.2710 0.7060 0.6543
vn 0.5008 0.7060 0.5008
vn -0.7082 0.7060 0.0000
vn -0.6543 0.7060 0.2710
vn -0.7304 -0.6124 0.3025
vn -0.0000 0.7060 -0.7082
vn -0.2710 0.7060 -0.6543
vn 0.6543 0.7060 -0.2710
vn 0.5008 0.7060 -0.5008
vn 0.7906 -0.6124 -0.0000
vn 0.7304 -0.6124 0.3025
vn -0.0000 -0.6124 0.7906
vn -0.5008 0.7060 0.5008
vn -0.2710 0.7060 0.6543
vn 0.3025 -0.6124 -0.7304
vn 0.5590 -0.6124 -0.5590
vn 0.0000 -0.6124 -0.7906
vn -0.7906 -0.6124 -0.0000
vn -0.7304 -0.6124 -0.3025
vn -0.5008 0.7060 -0.5008
vn 0.7304 -0.6124 -0.3025
vn -0.6543 0.7060 -0.2710
vn 0.2710 0.7060 -0.6543
vn -0.0000 0.7060 0.7082
usemtl Material.020
s 1
f 1//1 18//1 17//1 16//1 15//1 14//1 13//1 12//1 11//1 10//1 9//1 8//1 7//1 6//1 5//1 4//1 3//1 2//1
f 14//1 32//1 31//1 30//1 29//1 28//1 27//1 26//1 4//1 5//1 25//1 24//1 23//1 22//1 21//1 20//1 19//1 13//1
f 33//2 59//2 47//2 48//2 43//2 39//2 40//2 62//2 35//2 36//2 53//2 54//2 41//2 45//2 46//2 64//2 49//2 34//2
f 45//2 41//2 42//2 58//2 61//2 57//2 37//2 38//2 44//2 43//2 48//2 63//2 55//2 56//2 60//2 51//2 52//2 50//2
f 20//3 21//4 61//4 58//3
f 32//5 14//6 45//6 50//5
f 7//7 8//8 62//8 40//7
f 10//9 11//10 53//10 36//9
f 30//11 31//12 52//12 51//11
f 4//13 26//14 63//14 48//13
f 11//10 12//15 54//15 53//10
f 18//16 1//17 33//17 34//16
f 15//18 16//19 64//19 46//18
f 5//20 6//21 39//21 43//20
f 9//22 10//9 36//9 35//22
f 26//14 27//23 55//23 63//14
f 27//23 28//24 56//24 55//23
f 23//25 24//26 38//26 37//25
f 21//4 22//27 57//27 61//4
f 12//15 13//28 41//28 54//15
f 6//21 7//7 40//7 39//21
f 8//8 9//22 35//22 62//8
f 22//27 23//25 37//25 57//27
f 13//28 19//29 42//29 41//28
f 1//17 2//30 59//30 33//17
f 19//29 20//3 58//3 42//29
f 25//31 5//20 43//20 44//31
f 31//12 32//5 50//5 52//12
f 2//30 3//32 47//32 59//30
f 14//6 15//18 46//18 45//6
f 16//19 17//33 49//33 64//19
f 24//26 25//31 44//31 38//26
f 28//24 29//34 60//34 56//24
f 3//32 4//13 48//13 47//32
f 29//34 30//11 51//11 60//34
f 17//33 18//16 34//16 49//33
