# Blender v2.79 (sub 0) OBJ File: 'untitled3.blend'
# www.blender.org
mtllib level2.mtl
o Plane_Plane.001
v -500.000000 -0.000044 500.386841
v 500.000000 -0.000044 500.386841
v 500.000000 0.000044 -499.613159
v -500.000000 0.000044 -499.613159
vn 0.0000 1.0000 0.0000
usemtl Material.015
s off
f 1//1 2//1 3//1 4//1
o Cube_Cube.002_Cube_Cube.003
v 5.878571 -0.100919 -6.195466
v 5.706113 -0.100919 -5.883204
v 5.830089 0.149759 -5.878125
v 5.955004 0.237496 -6.112504
v 6.198814 0.149759 -6.217830
v 6.203893 -0.100919 -6.341804
v 6.516156 -0.100919 -6.169349
v 6.433193 0.237496 -6.092914
v 6.538518 0.149759 -5.849103
v 6.662494 -0.100919 -5.844024
v 6.490036 -0.100919 -5.531760
v 6.413603 0.237496 -5.614724
v 6.169791 0.149759 -5.509398
v 6.164712 -0.100919 -5.385423
v 5.852450 -0.100919 -5.557879
v 5.935413 0.237496 -5.634315
v 6.184303 0.350301 -5.863614
v 5.504223 -0.100919 -5.784686
v 5.569315 -0.100919 -5.634519
v 5.605908 0.014095 -5.678128
v 5.555782 0.054350 -5.789197
v 5.585860 0.014095 -5.907281
v 5.542251 -0.100919 -5.943873
v 5.692419 -0.100919 -6.008967
v 5.696929 0.054350 -5.957408
v 5.815013 0.014095 -5.927329
v 5.851607 -0.100919 -5.970939
v 5.916698 -0.100919 -5.820773
v 5.865139 0.054350 -5.816262
v 5.835063 0.014095 -5.698176
v 5.878673 -0.100919 -5.661584
v 5.728506 -0.100919 -5.596492
v 5.723994 0.054350 -5.648051
v 5.710462 0.106106 -5.802730
vn -0.8367 0.3481 0.4227
vn -0.8974 0.3482 -0.2710
vn -0.4227 0.3482 -0.8367
vn 0.2710 0.3482 -0.8974
vn 0.8367 0.3482 -0.4227
vn 0.8974 0.3482 0.2710
vn 0.4227 0.3482 0.8367
vn -0.2710 0.3482 0.8974
vn 0.3165 0.8704 -0.3772
vn -0.3772 0.8704 -0.3165
vn -0.3165 0.8704 0.3772
vn 0.3772 0.8704 0.3165
vn -0.8458 0.3482 -0.4042
vn -0.3337 0.3482 -0.8760
vn 0.4042 0.3482 -0.8458
vn 0.8760 0.3482 -0.3337
vn 0.8458 0.3482 0.4042
vn 0.3337 0.3482 0.8760
vn -0.4042 0.3482 0.8458
vn -0.8760 0.3482 0.3337
vn 0.4920 0.8704 0.0202
vn 0.0202 0.8704 -0.4920
vn -0.4920 0.8704 -0.0202
vn -0.0202 0.8704 0.4920
usemtl Material.058
s off
f 22//2 23//2 24//2 25//2
f 22//3 25//3 26//3 27//3
f 28//4 27//4 26//4 29//4
f 28//5 29//5 30//5 31//5
f 32//6 31//6 30//6 33//6
f 32//7 33//7 34//7 35//7
f 36//8 35//8 34//8 37//8
f 36//9 37//9 24//9 23//9
f 38//10 33//10 30//10 29//10
f 38//11 29//11 26//11 25//11
f 38//12 25//12 24//12 37//12
f 38//13 37//13 34//13 33//13
usemtl Material.057
f 5//14 6//14 7//14 8//14
f 5//15 8//15 9//15 10//15
f 11//16 10//16 9//16 12//16
f 11//17 12//17 13//17 14//17
f 15//18 14//18 13//18 16//18
f 15//19 16//19 17//19 18//19
f 19//20 18//20 17//20 20//20
f 19//21 20//21 7//21 6//21
f 21//22 16//22 13//22 12//22
f 21//23 12//23 9//23 8//23
f 21//24 8//24 7//24 20//24
f 21//25 20//25 17//25 16//25
o Cube.001_Cube.002
v 2.000000 2.576619 4.372608
v 2.000000 2.776619 4.372608
v 2.000000 1.200000 -8.000000
v 2.000000 1.000000 -8.000000
v 4.000000 1.200000 -8.000000
v 4.000000 1.000000 -8.000000
v 4.000000 2.776619 4.372608
v 4.000000 2.576619 4.372608
v -2.000000 2.576619 4.372608
v -2.000000 1.000000 -8.000000
v -2.000000 1.200000 -8.000000
v -2.000000 2.776619 4.372608
v -4.000000 1.000000 -8.000000
v -4.000000 1.200000 -8.000000
v -4.000000 2.576619 4.372608
v -4.000000 2.776619 4.372608
v -2.000000 1.000000 -6.000000
v -2.000000 1.200000 -6.000000
v -2.000000 1.200000 -8.000000
v -2.000000 1.000000 -8.000000
v 2.000000 1.200000 -8.000000
v 2.000000 1.000000 -8.000000
v 2.000000 1.200000 -6.000000
v 2.000000 1.000000 -6.000000
v 4.000000 1.200000 0.000000
v 4.000000 1.000000 0.000000
v 2.000000 1.200000 0.000000
v 2.000000 1.000000 0.000000
v -2.000000 1.000000 0.000000
v -4.000000 1.200000 0.000000
v -4.000000 1.000000 0.000000
v -2.000000 1.200000 0.000000
vn -1.0000 0.0000 0.0000
vn 0.0000 0.0000 -1.0000
vn 1.0000 0.0000 0.0000
vn 0.0000 0.0000 1.0000
vn 0.0000 -0.9851 0.1722
vn 0.0000 -0.9407 0.3392
vn 0.0000 0.9851 -0.1722
vn 0.0000 0.9407 -0.3392
vn 0.0000 -1.0000 -0.0000
vn 0.0000 1.0000 0.0000
usemtl Material.002
s 1
f 66//26 65//26 41//26 42//26
f 42//27 41//27 43//27 44//27
f 64//28 63//28 45//28 46//28
f 46//29 45//29 40//29 39//29
f 66//30 64//30 46//31 39//31
f 63//32 65//32 40//33 45//33
f 67//28 48//28 49//28 70//28
f 48//27 51//27 52//27 49//27
f 69//26 53//26 54//26 68//26
f 53//29 47//29 50//29 54//29
f 67//30 47//31 53//31 69//30
f 68//32 54//33 50//33 70//32
f 55//26 56//26 57//26 58//26
f 58//27 57//27 59//27 60//27
f 60//28 59//28 61//28 62//28
f 62//29 61//29 56//29 55//29
f 58//34 60//34 62//34 55//34
f 59//35 57//35 56//35 61//35
f 43//35 41//35 65//32 63//32
f 42//34 44//34 64//30 66//30
f 44//28 43//28 63//28 64//28
f 39//26 40//26 65//26 66//26
f 52//35 68//32 70//32 49//35
f 48//34 67//30 69//30 51//34
f 51//26 69//26 68//26 52//26
f 47//28 67//28 70//28 50//28
o Cube_Cube.001
v -4.000000 0.577091 12.354135
v -4.000000 2.577091 12.354135
v -4.000000 1.000000 -8.000000
v -4.000000 -1.000000 -8.000000
v 4.000000 1.000000 -8.000000
v 4.000000 -1.000000 -8.000000
v 4.000000 2.577091 12.354135
v 4.000000 0.577091 12.354135
v -0.500029 2.577091 7.671274
v -0.375032 2.577091 7.296282
v -0.000040 2.577091 7.171278
v 0.374946 2.577091 7.296261
v 0.499968 2.577091 7.671271
v 0.374957 2.577091 8.046265
v -0.000017 2.577091 8.171291
v -0.375025 2.577091 8.046284
v -0.375025 1.679550 8.046284
v -0.500029 1.679550 7.671274
v -0.000017 1.679550 8.171291
v 0.374957 1.679550 8.046265
v 0.499968 1.679550 7.671271
v 0.374946 1.679550 7.296261
v -0.000040 1.679550 7.171278
v -0.375032 1.679550 7.296282
v 4.000000 1.000000 0.000000
v 4.000000 -1.000000 -0.000000
v -4.000000 1.000000 0.000000
v -4.000000 -1.000000 -0.000000
v 4.000000 2.577091 4.358434
v 4.000000 0.577091 4.358434
v -4.000000 2.577091 4.358434
v -4.000000 0.577091 4.358434
vn 0.9487 0.0000 -0.3162
vn 0.0000 1.0000 0.0000
vn 0.9487 0.0000 0.3162
vn -0.3162 0.0000 0.9487
vn -0.9487 0.0000 -0.3163
vn 0.3162 0.0000 -0.9487
vn 0.3162 0.0000 0.9487
vn -0.9487 0.0000 0.3163
vn -0.3163 0.0000 -0.9487
vn -1.0000 -0.0000 0.0000
vn 0.0000 0.0000 -1.0000
vn 1.0000 0.0000 0.0000
vn 0.0000 0.0000 1.0000
vn 0.0000 -0.9850 0.1727
vn 0.0000 -1.0000 -0.0000
vn -0.0000 0.9850 -0.1727
usemtl Material.005
s 1
f 79//36 86//36 87//36 88//36
f 87//37 89//37 90//37 91//37 92//37 93//37 94//37 88//37
f 80//38 79//38 88//38 94//38
f 82//39 81//39 93//39 92//39
f 84//40 83//40 91//40 90//40
f 86//41 85//41 89//41 87//41
f 81//42 80//42 94//42 93//42
f 83//43 82//43 92//43 91//43
f 85//44 84//44 90//44 89//44
usemtl Material.006
f 98//45 97//45 73//45 74//45
f 74//46 73//46 75//46 76//46
f 100//47 99//47 77//47 78//47
f 78//48 77//48 72//48 71//48
f 102//49 100//49 78//50 71//50
f 99//51 101//51 72//37 79//37 80//37 81//37 82//37 83//37 77//37
f 77//37 83//37 84//37 85//37 86//37 79//37 72//37
f 75//37 73//37 97//51 95//51
f 74//50 76//50 96//49 98//49
f 76//47 75//47 95//47 96//47
f 102//45 101//45 97//45 98//45
f 71//45 72//45 101//45 102//45
f 95//51 97//51 101//51 99//51
f 98//49 96//49 100//49 102//49
f 96//47 95//47 99//47 100//47
o Cube.001_Cube.000
v -1.999999 2.772860 12.350000
v -1.999999 2.572860 12.350000
v -3.999999 2.772860 12.350000
v -3.999999 2.572860 12.350000
v 2.000001 2.572860 12.350000
v 2.000001 2.772860 12.350000
v 4.000000 2.572860 12.349999
v 4.000000 2.772860 12.349999
v 2.000000 2.572860 10.350000
v 2.000000 2.772860 10.350000
v 2.000001 2.772860 12.350000
v 2.000001 2.572860 12.350000
v -1.999999 2.772860 12.350000
v -1.999999 2.572860 12.350000
v -2.000000 2.772860 10.350000
v -2.000000 2.572860 10.350000
v -4.000000 2.772860 4.350000
v -4.000000 2.572860 4.350000
v -2.000000 2.772860 4.350000
v -2.000000 2.572860 4.350000
v 2.000000 2.572860 4.350000
v 4.000000 2.772860 4.349999
v 4.000000 2.572860 4.349999
v 2.000000 2.772860 4.350000
vn 1.0000 0.0000 -0.0000
vn 0.0000 0.0000 1.0000
vn -1.0000 0.0000 0.0000
vn 0.0000 0.0000 -1.0000
vn 0.0000 -1.0000 0.0000
vn 0.0000 1.0000 -0.0000
usemtl Material.067
s 1
f 122//52 121//52 103//52 104//52
f 104//53 103//53 105//53 106//53
f 123//54 107//54 108//54 126//54
f 107//53 109//53 110//53 108//53
f 111//52 112//52 113//52 114//52
f 114//53 113//53 115//53 116//53
f 116//54 115//54 117//54 118//54
f 118//55 117//55 112//55 111//55
f 114//56 116//56 118//56 111//56
f 115//57 113//57 112//57 117//57
f 105//57 103//57 121//57 119//57
f 104//56 106//56 120//56 122//56
f 106//54 105//54 119//54 120//54
f 110//57 124//57 126//57 108//57
f 107//56 123//56 125//56 109//56
f 109//52 125//52 124//52 110//52
